<svg xmlns="http://www.w3.org/2000/svg" width="786.753" height="1597.097" viewBox="0 0 786.753 1597.097">
  <g id="Group_68" data-name="Group 68" transform="translate(-1035.291 -1233.167)">
    <g id="Group_61" data-name="Group 61" transform="translate(2026.489 1103.248) rotate(91)">
      <g id="Group_35" data-name="Group 35" transform="translate(657.867 218.115)">
        <line id="Line_17" data-name="Line 17" x2="14.142" transform="translate(0 0) rotate(45)" fill="none" stroke="#e8ff1a" stroke-linecap="round" stroke-width="4"/>
        <line id="Line_18" data-name="Line 18" x2="14.142" transform="translate(10 0) rotate(135)" fill="none" stroke="#e8ff1a" stroke-linecap="round" stroke-width="4"/>
      </g>
      <g id="Group_36" data-name="Group 36" transform="translate(1264.451 619.115)">
        <line id="Line_17-2" data-name="Line 17" x2="14.142" transform="translate(0 0) rotate(45)" fill="none" stroke="#e8ff1a" stroke-linecap="round" stroke-width="4"/>
        <line id="Line_18-2" data-name="Line 18" x2="14.142" transform="translate(10 0) rotate(135)" fill="none" stroke="#e8ff1a" stroke-linecap="round" stroke-width="4"/>
      </g>
      <g id="Group_37" data-name="Group 37" transform="translate(987.939 499.482)">
        <line id="Line_17-3" data-name="Line 17" x2="14.142" transform="translate(0 0) rotate(45)" fill="none" stroke="#e8ff1a" stroke-linecap="round" stroke-width="4"/>
        <line id="Line_18-3" data-name="Line 18" x2="14.142" transform="translate(10 0) rotate(135)" fill="none" stroke="#e8ff1a" stroke-linecap="round" stroke-width="4"/>
      </g>
      <g id="Group_38" data-name="Group 38" transform="translate(621.895 900.115)">
        <line id="Line_17-4" data-name="Line 17" x2="14.142" transform="translate(0 0) rotate(45)" fill="none" stroke="#e8ff1a" stroke-linecap="round" stroke-width="4"/>
        <line id="Line_18-4" data-name="Line 18" x2="14.142" transform="translate(10 0) rotate(135)" fill="none" stroke="#e8ff1a" stroke-linecap="round" stroke-width="4"/>
      </g>
      <g id="Ellipse_75" data-name="Ellipse 75" transform="translate(1097.608 916)" fill="none" stroke="#e8ff1a" stroke-width="4">
        <circle cx="10" cy="10" r="10" stroke="none"/>
        <circle cx="10" cy="10" r="8" fill="none"/>
      </g>
      <g id="Ellipse_77" data-name="Ellipse 77" transform="translate(669.596 587.254)" fill="none" stroke="#e8ff1a" stroke-width="4">
        <circle cx="10" cy="10" r="10" stroke="none"/>
        <circle cx="10" cy="10" r="8" fill="none"/>
      </g>
      <g id="Path_320" data-name="Path 320" transform="translate(761.976 831)" fill="none">
        <path d="M10,0A10,10,0,0,1,20,10a10.139,10.139,0,0,1-3.4,7.516A9.769,9.769,0,0,1,10,20,10,10,0,0,1,10,0Z" stroke="none"/>
        <path d="M 10 4 C 6.691590309143066 4 4 6.691590309143066 4 10 C 4 13.30841064453125 6.691590309143066 16 10 16 C 11.74582958221436 16 13.13726997375488 15.2772798538208 13.85731983184814 14.60091972351074 L 13.86303997039795 14.59555053710938 L 13.86878967285156 14.59018993377686 C 15.28295993804932 13.27225017547607 16 11.72789001464844 16 10 C 16 6.691590309143066 13.30841064453125 4 10 4 M 10 0 C 15.52285003662109 0 20 4.477149963378906 20 10 C 20 12.88290977478027 18.78005981445313 15.48089027404785 16.59590911865234 17.51642036437988 C 15.04094982147217 18.97702980041504 12.63994026184082 20 10 20 C 4.477149963378906 20 0 15.52285003662109 0 10 C 0 4.477149963378906 4.477149963378906 0 10 0 Z" stroke="none" fill="#e8ff1a"/>
      </g>
      <g id="Ellipse_79" data-name="Ellipse 79" transform="translate(1287.636 182)" fill="none" stroke="#e8ff1a" stroke-width="4">
        <circle cx="10" cy="10" r="10" stroke="none"/>
        <circle cx="10" cy="10" r="8" fill="none"/>
      </g>
      <g id="Group_39" data-name="Group 39" transform="translate(144.115 640.115)">
        <line id="Line_17-5" data-name="Line 17" x2="14.142" transform="translate(0 0) rotate(45)" fill="none" stroke="#e8ff1a" stroke-linecap="round" stroke-width="4"/>
        <line id="Line_18-5" data-name="Line 18" x2="14.142" transform="translate(10 0) rotate(135)" fill="none" stroke="#e8ff1a" stroke-linecap="round" stroke-width="4"/>
      </g>
      <g id="Group_62" data-name="Group 62" transform="translate(762.465 302.387)">
        <line id="Line_17-6" data-name="Line 17" x2="14.142" transform="translate(0 0) rotate(45)" fill="none" stroke="#e8ff1a" stroke-linecap="round" stroke-width="4"/>
        <line id="Line_18-6" data-name="Line 18" x2="14.142" transform="translate(10 0) rotate(135)" fill="none" stroke="#e8ff1a" stroke-linecap="round" stroke-width="4"/>
      </g>
      <g id="Group_63" data-name="Group 63" transform="translate(318.795 782.387)">
        <line id="Line_17-7" data-name="Line 17" x2="14.142" transform="translate(0 0) rotate(45)" fill="none" stroke="#e8ff1a" stroke-linecap="round" stroke-width="4"/>
        <line id="Line_18-7" data-name="Line 18" x2="14.142" transform="translate(10 0) rotate(135)" fill="none" stroke="#e8ff1a" stroke-linecap="round" stroke-width="4"/>
      </g>
      <g id="Ellipse_148" data-name="Ellipse 148" transform="translate(208.856 434.272)" fill="none" stroke="#e8ff1a" stroke-width="4">
        <circle cx="10" cy="10" r="10" stroke="none"/>
        <circle cx="10" cy="10" r="8" fill="none"/>
      </g>
      <g id="Path_335" data-name="Path 335" transform="translate(458.892 714.272)" fill="none">
        <path d="M10,0A10,10,0,0,1,20,10a10.139,10.139,0,0,1-3.4,7.516A9.769,9.769,0,0,1,10,20,10,10,0,0,1,10,0Z" stroke="none"/>
        <path d="M 10 4 C 6.691590309143066 4 4 6.691590309143066 4 10 C 4 13.30841064453125 6.691590309143066 16 10 16 C 11.74582958221436 16 13.13726997375488 15.2772798538208 13.85731983184814 14.60091972351074 L 13.86303997039795 14.59555053710938 L 13.86878967285156 14.59018993377686 C 15.28295993804932 13.27225017547607 16 11.72789001464844 16 10 C 16 6.691590309143066 13.30841064453125 4 10 4 M 10 0 C 15.52285003662109 0 20 4.477149963378906 20 10 C 20 12.88290977478027 18.78005981445313 15.48089027404785 16.59590911865234 17.51642036437988 C 15.04094982147217 18.97702980041504 12.63994026184082 20 10 20 C 4.477149963378906 20 0 15.52285003662109 0 10 C 0 4.477149963378906 4.477149963378906 0 10 0 Z" stroke="none" fill="#e8ff1a"/>
      </g>
      <g id="Group_64" data-name="Group 64" transform="translate(344.721 376.873)">
        <line id="Line_17-8" data-name="Line 17" x2="14.142" transform="translate(0 0) rotate(45)" fill="none" stroke="#e8ff1a" stroke-linecap="round" stroke-width="4"/>
        <line id="Line_18-8" data-name="Line 18" x2="14.142" transform="translate(10 0) rotate(135)" fill="none" stroke="#e8ff1a" stroke-linecap="round" stroke-width="4"/>
      </g>
    </g>
    <g id="Group_65" data-name="Group 65" transform="translate(1959.489 2033.248) rotate(91)">
      <g id="Group_35-2" data-name="Group 35" transform="translate(680.402 218.115)">
        <line id="Line_17-9" data-name="Line 17" x2="14.142" transform="translate(0 0) rotate(45)" fill="none" stroke="#e8ff1a" stroke-linecap="round" stroke-width="4"/>
        <line id="Line_18-9" data-name="Line 18" x2="14.142" transform="translate(10 0) rotate(135)" fill="none" stroke="#e8ff1a" stroke-linecap="round" stroke-width="4"/>
      </g>
      <g id="Group_38-2" data-name="Group 38" transform="translate(642.853 900.115)">
        <line id="Line_17-10" data-name="Line 17" x2="14.142" transform="translate(0 0) rotate(45)" fill="none" stroke="#e8ff1a" stroke-linecap="round" stroke-width="4"/>
        <line id="Line_18-10" data-name="Line 18" x2="14.142" transform="translate(10 0) rotate(135)" fill="none" stroke="#e8ff1a" stroke-linecap="round" stroke-width="4"/>
      </g>
      <g id="Ellipse_77-2" data-name="Ellipse 77" transform="translate(692.847 587.254)" fill="none" stroke="#e8ff1a" stroke-width="4">
        <circle cx="10" cy="10" r="10" stroke="none"/>
        <circle cx="10" cy="10" r="8" fill="none"/>
      </g>
      <g id="Path_320-2" data-name="Path 320" transform="translate(789.315 831)" fill="none">
        <path d="M10,0A10,10,0,0,1,20,10a10.139,10.139,0,0,1-3.4,7.516A9.769,9.769,0,0,1,10,20,10,10,0,0,1,10,0Z" stroke="none"/>
        <path d="M 10 4 C 6.691590309143066 4 4 6.691590309143066 4 10 C 4 13.30841064453125 6.691590309143066 16 10 16 C 11.74582958221436 16 13.13726997375488 15.2772798538208 13.85731983184814 14.60091972351074 L 13.86303997039795 14.59555053710938 L 13.86878967285156 14.59018993377686 C 15.28295993804932 13.27225017547607 16 11.72789001464844 16 10 C 16 6.691590309143066 13.30841064453125 4 10 4 M 10 0 C 15.52285003662109 0 20 4.477149963378906 20 10 C 20 12.88290977478027 18.78005981445313 15.48089027404785 16.59590911865234 17.51642036437988 C 15.04094982147217 18.97702980041504 12.63994026184082 20 10 20 C 4.477149963378906 20 0 15.52285003662109 0 10 C 0 4.477149963378906 4.477149963378906 0 10 0 Z" stroke="none" fill="#e8ff1a"/>
      </g>
      <g id="Group_39-2" data-name="Group 39" transform="translate(144.115 640.115)">
        <line id="Line_17-11" data-name="Line 17" x2="14.142" transform="translate(0 0) rotate(45)" fill="none" stroke="#e8ff1a" stroke-linecap="round" stroke-width="4"/>
        <line id="Line_18-11" data-name="Line 18" x2="14.142" transform="translate(10 0) rotate(135)" fill="none" stroke="#e8ff1a" stroke-linecap="round" stroke-width="4"/>
      </g>
      <g id="Group_62-2" data-name="Group 62" transform="translate(789.588 302.387)">
        <line id="Line_17-12" data-name="Line 17" x2="14.142" transform="translate(0 0) rotate(45)" fill="none" stroke="#e8ff1a" stroke-linecap="round" stroke-width="4"/>
        <line id="Line_18-12" data-name="Line 18" x2="14.142" transform="translate(10 0) rotate(135)" fill="none" stroke="#e8ff1a" stroke-linecap="round" stroke-width="4"/>
      </g>
      <g id="Group_63-2" data-name="Group 63" transform="translate(318.795 782.387)">
        <line id="Line_17-13" data-name="Line 17" x2="14.142" transform="translate(0 0) rotate(45)" fill="none" stroke="#e8ff1a" stroke-linecap="round" stroke-width="4"/>
        <line id="Line_18-13" data-name="Line 18" x2="14.142" transform="translate(10 0) rotate(135)" fill="none" stroke="#e8ff1a" stroke-linecap="round" stroke-width="4"/>
      </g>
      <g id="Ellipse_148-2" data-name="Ellipse 148" transform="translate(208.856 434.272)" fill="none" stroke="#e8ff1a" stroke-width="4">
        <circle cx="10" cy="10" r="10" stroke="none"/>
        <circle cx="10" cy="10" r="8" fill="none"/>
      </g>
      <g id="Path_335-2" data-name="Path 335" transform="translate(472.821 714.272)" fill="none">
        <path d="M10,0A10,10,0,0,1,20,10a10.139,10.139,0,0,1-3.4,7.516A9.769,9.769,0,0,1,10,20,10,10,0,0,1,10,0Z" stroke="none"/>
        <path d="M 10 4 C 6.691590309143066 4 4 6.691590309143066 4 10 C 4 13.30841064453125 6.691590309143066 16 10 16 C 11.74582958221436 16 13.13726997375488 15.2772798538208 13.85731983184814 14.60091972351074 L 13.86303997039795 14.59555053710938 L 13.86878967285156 14.59018993377686 C 15.28295993804932 13.27225017547607 16 11.72789001464844 16 10 C 16 6.691590309143066 13.30841064453125 4 10 4 M 10 0 C 15.52285003662109 0 20 4.477149963378906 20 10 C 20 12.88290977478027 18.78005981445313 15.48089027404785 16.59590911865234 17.51642036437988 C 15.04094982147217 18.97702980041504 12.63994026184082 20 10 20 C 4.477149963378906 20 0 15.52285003662109 0 10 C 0 4.477149963378906 4.477149963378906 0 10 0 Z" stroke="none" fill="#e8ff1a"/>
      </g>
      <g id="Group_64-2" data-name="Group 64" transform="translate(344.721 376.873)">
        <line id="Line_17-14" data-name="Line 17" x2="14.142" transform="translate(0 0) rotate(45)" fill="none" stroke="#e8ff1a" stroke-linecap="round" stroke-width="4"/>
        <line id="Line_18-14" data-name="Line 18" x2="14.142" transform="translate(10 0) rotate(135)" fill="none" stroke="#e8ff1a" stroke-linecap="round" stroke-width="4"/>
      </g>
    </g>
  </g>
</svg>
