<svg xmlns="http://www.w3.org/2000/svg" width="364.561" height="1008.073" viewBox="0 0 364.561 1008.073">
  <g id="Group_47" data-name="Group 47" transform="translate(-1149.096 -241.926)">
    <path id="Union_9" data-name="Union 9" d="M-2381.043,6115.375c2.623-5.8,4.287-16.235,5.255-24.494-2.219.608-3.563,1.022-3.563,1.022l-7.854-202.541-40.1-162.282-55.6,108.781,53.285,166.972s21.579,19.968,19.285,27.859a4.1,4.1,0,0,1-1.053,1.6c5,2.1,10.38,4.526,11.742,5.786,2.7,2.5-27.053,40.059-49.618,61.738s-53.222,35.871-66.2,36.375,4.186-26.168,6.682-28.866c1.873-2.023,17.166-35.3,24.692-51.8-4.176-3.561-1.242-14.1-1.645-24.513-.5-12.982-49.379-133.315-66.571-174.258s-3.827-98.674,4.949-140.624c4.927-23.55,14.574-52.2,22.088-72.8-3.763-8.952,2.648-26.977,2.648-26.977s23.852-55.537,23.35-68.521c-.344-8.877,16.672-40.311,27.47-59.306l-84.619-6.094,1.828-15.444c-14.856-5.625-36.866-16.253-37.4-29.986-.6-15.333,26.674-6.246,41-.434l.447-3.776,57.128-2.215,38.616-11.26,16.576-107.906s6.839-15.117,16.731-21.676a57.16,57.16,0,0,1-29.879-50.247,56.905,56.905,0,0,1,8.574-30.127c-4.648-.279-9.014-1.465-12.516-4.512-4.9-4.266-6.631-11.144-7-17.629s.354-13.06-.815-19.452c1.447,1.774,4.451,1.375,6.108-.2a12.6,12.6,0,0,0,2.9-6.125c.385,2.987,4.515,4.155,7.186,2.764s4.146-4.284,5.455-7a3.431,3.431,0,0,0,3.975,2.754,11.039,11.039,0,0,0,4.806-2.414c28.057-19.88,81.222-14.515,96.784,19.412a78.88,78.88,0,0,1,1.567,61.288,33.294,33.294,0,0,1-2.849,5.588,56.946,56.946,0,0,1-2.424,12.707c2.311,3.352,4.715,6.782,7.092,10.084-5.65-8.5,27.565-9.42,41.81,26.064,5.823,14.5,14.417,34.442,21.609,54.8,12.076,5.677,25.931,21.245,24.571,63.034-2.374,72.909,4.632,119.448-13.041,133.135-9.457,7.324-30.29,28.491-49.6,46.667,1.048,4.821,1.968,9.413,2.637,13.668h0c2.023,12.733,1.764,22.445-4.074,26.308,10.966,46.142-15.278,214.995-15.278,214.995s10.35,199.843,8.155,210.332-19.464,34.563-19.464,34.563a5.423,5.423,0,0,0-1.135-1.419c1.9,11.154,8.052,25.345,9.931,27.083,2.7,2.5.7,18.177.7,18.177s-33.556,6.5-46.539,7.005c-.206.008-.407.012-.607.012C-2385.245,6141.05-2385.757,6125.793-2381.043,6115.375Zm71.2-619.1a86.965,86.965,0,0,0-6.553,18.4c6.377-5.479,10.483-10.285,10.365-13.347a58.908,58.908,0,0,0-1.574-9.478Q-2308.773,5494.051-2309.841,5496.275Z" transform="translate(3756.096 -4902.051)" fill="#fff" stroke="#fff" stroke-width="4"/>
    <g id="Group_19" data-name="Group 19" transform="translate(-3372 6088)">
      <rect id="Rectangle_77" data-name="Rectangle 77" width="36.381" height="46.776" transform="translate(4698.283 -5701.056) rotate(-2.221)" fill="#6c63ff"/>
      <path id="Path_50" data-name="Path 50" d="M290.724,319.239s-50.344-24.054-49.538-3.28,50.747,34.44,50.747,34.44Z" transform="translate(4279.92 -5858.01)" fill="#f2b1b1"/>
      <path id="Path_51" data-name="Path 51" d="M143.125,432.943S119.373,491.078,110.6,533.028s-22.14,99.681-4.949,140.624,66.067,161.275,66.571,174.258-4.186,26.168,6.2,25.766,66.91-18.2,69.2-26.089-19.284-27.859-19.284-27.859L175.053,652.756l55.6-108.781,40.1,162.282L278.6,908.8s38.547-11.9,44.144-1.712c0,0,17.271-24.075,19.465-34.562s-8.156-210.331-8.156-210.331,35.383-227.623,6.82-226.516S200.432,368.307,143.125,432.943Z" transform="translate(4455.142 -5795.946)" fill="#2f2e41"/>
      <path id="Path_52" data-name="Path 52" d="M194.832,692.2s-26.348,58.234-28.844,60.932-19.666,29.369-6.682,28.866,43.64-14.7,66.2-36.375,52.315-59.242,49.618-61.738-21.176-9.581-21.176-9.581Z" transform="translate(4438.326 -5624.854)" fill="#2f2e41"/>
      <path id="Path_53" data-name="Path 53" d="M118.1,706.834s-1.59,26.068-6.38,36.656-4.186,26.168,8.8,25.665,46.539-7.006,46.539-7.006,1.993-15.681-.7-18.177-14.192-30.657-9.3-38.648S118.1,706.834,118.1,706.834Z" transform="translate(4620.334 -5607.167)" fill="#2f2e41"/>
      <path id="Path_54" data-name="Path 54" d="M140.332,187.821s27.679,43.137,38.468,53.121-19.565,31.966-19.565,31.966l-54.329,7.308s.683-49.438-2.115-54.53S140.332,187.821,140.332,187.821Z" transform="translate(4617.311 -5934.089)" fill="#f2b1b1"/>
      <path id="Path_55" data-name="Path 55" d="M149.535,226.947s11.192,20.371,21.579,19.968,64.112-23.291,66.406-31.182,17.8,56.523,17.8,56.523L123.855,503.606,91.788,481.444l15.537-135.833L120.087,272.3Z" transform="translate(4560.886 -5916.771)" fill="#e5b209"/>
      <path id="Path_56" data-name="Path 56" d="M283.295,440.069c-5.244,10.97-8.519,22.409-8.065,34.12.02.519.04,1.039.086,1.557,1.244,24.033,10.1,51.828,13.274,72.042,2.3,14.5,1.649,25.084-6.837,27.571-20.572,6,3,10.286-76.592,36.778s-93.481,3.625-93.682-1.568,11.272-44.647,8.574-47.143-37.742,32.671-48.33,27.88-1.208-31.16-1.208-31.16,23.852-55.537,23.349-68.521S130,417.407,130,417.407l24.917-162.2s9.581-21.176,22.464-24.276,23.572,4.287,23.572,4.287L179.39,282.861l-22.745,84.1,3.805,31.06s26.449-55.638,43.82-77.116,54.408-72.326,54.408-72.326,8.647-29.176,2.119-37.895c-6.529-8.745,27.228-10.054,41.622,25.8,7.628,19,20.014,47.335,27.772,73.716,6.914,23.371,10.179,45.219,3.33,57.708C323.054,386.982,296.72,412.06,283.295,440.069Z" transform="translate(4519.959 -5922.845)" fill="#575a89"/>
      <path id="Path_57" data-name="Path 57" d="M127.365,329.729c-10.469,19.078-36.8,44.155-50.228,72.164-3.507-12.633-7.784-25.7-7.784-25.7S52.946,288.4,101.478,265.718a32.48,32.48,0,0,1,22.558,6.3C130.949,295.392,134.215,317.241,127.365,329.729Z" transform="translate(4726.117 -5884.668)" opacity="0.1"/>
      <path id="Path_58" data-name="Path 58" d="M288.471,301.411l-41.144,12L190.2,315.624l-5.877,49.639,93.884,6.763S301.656,306.1,288.471,301.411Z" transform="translate(4372.353 -5861.884)" fill="#575a89"/>
      <path id="Path_59" data-name="Path 59" d="M178.587,403.451s-55.043,9.132-42.48,25.7,61.324-.85,61.324-.85Z" transform="translate(4549.328 -5797.021)" fill="#f2b1b1"/>
      <path id="Path_60" data-name="Path 60" d="M177.431,370.725c1.244,24.033,10.1,51.828,13.274,72.042C173.17,459.362,156.5,474,150.212,474.244c-12.983.5-33.858-1.288-41.547,1.611s-12.2-46.337-12.2-46.337,4.589-15.781,25.061-24.377C135.343,399.325,161.83,383.552,177.431,370.725Z" transform="translate(4617.846 -5817.824)" opacity="0.1"/>
      <path id="Path_61" data-name="Path 61" d="M173.005,256.2s43.942-6.905,41.568,66,4.632,119.447-13.041,133.136-75.081,75.728-88.064,76.231-33.858-1.288-41.547,1.611-12.2-46.337-12.2-46.337,4.589-15.782,25.061-24.378,68.7-39.072,68.3-49.459-12.2-46.337-12.2-46.337S124.474,278.889,173.005,256.2Z" transform="translate(4653.985 -5890.733)" fill="#575a89"/>
      <ellipse id="Ellipse_34" data-name="Ellipse 34" cx="57.17" cy="57.17" rx="57.17" ry="57.17" transform="translate(4661.725 -5796.734)" fill="#f2b1b1"/>
      <path id="Path_62" data-name="Path 62" d="M141.789,146.31a11.039,11.039,0,0,1-4.807,2.412,3.43,3.43,0,0,1-3.975-2.754c-1.308,2.713-2.784,5.6-5.454,7s-6.8.225-7.185-2.762a12.6,12.6,0,0,1-2.9,6.124c-1.657,1.58-4.662,1.978-6.108.2,1.169,6.391.448,12.964.815,19.451s2.1,13.364,7,17.63c7.148,6.221,17.9,4.686,27.3,3.507a8.286,8.286,0,0,1,4.278.234c3.52,1.5,3.361,6.4,3.408,10.227a28.416,28.416,0,0,0,24.882,26.984,14.244,14.244,0,0,0,10.587-2.584c2.669-2.263,4.033-5.951,7.092-7.65,4.976-2.765,11.01,1.267,14.648,5.646s7.223,9.764,12.859,10.565c7.454,1.06,13.131-6.536,15.916-13.53a78.876,78.876,0,0,0-1.568-61.288C223.01,131.8,169.846,126.43,141.789,146.31Z" transform="translate(4538.61 -5967.815)" fill="#2f2e41"/>
    </g>
  </g>
</svg>
