<svg xmlns="http://www.w3.org/2000/svg" width="576.367" height="1033.268" viewBox="0 0 576.367 1033.268">
  <g id="Group_66" data-name="Group 66" transform="translate(-672 -241.996)">
    <path id="Union_11" data-name="Union 11" d="M-4338.348,6176.358c-6.306-6.3-55.167-15.762-69.354-17.338s4.729-53.591,7.882-56.742c.875-.875,1.993-.05,3.151,1.6V6057.1c-2.968-1.233-4.728-2.113-4.728-2.113l6.3-179.686c-7.881-9.458,0-34.677,0-34.677l-17.338-115.062L-4434.5,5828.02s3.153,11.032,3.153,15.762-3.153,6.3-3.153,11.034-1.576,4.728,0,11.032-1.576,6.306-7.881,9.458,0,23.643,0,23.643l-3.151,102.452q-2.38,1.679-4.6,3.2l1.708,5.553c.109.068,13.938,8.64,18.647,21.2,4.729,12.608-29.947,52.014-29.947,52.014s-26.8,42.557-59.9,44.133-9.456-42.557-6.3-44.133,33.1-58.32,33.1-58.32l3.878,1.293.153-5.037c-2.8-2.164-.876-7.289-.876-7.289l-15.763-121.368a34.957,34.957,0,0,0-6.3-7.881c-4.728-4.728,1.576-6.3,4.728-12.609s3.153-6.306-1.575-12.61,1.575-28.372,1.575-28.372l-10.626-156.751c-2.722-1.024-5.463-2.125-8.207-3.283,3.969,21.979,3.221,45.647-17.419,48.125-29.633,3.555-28.958-45.477-26.8-70.016q-2.439-1.292-4.721-2.49c-10.683-5.6-8.394-20.39-.395-37.857l6.7-104s18.915-61.472,26.8-122.943,36.252-77.233,36.252-77.233h0l58.32-6.3,29.113-15.523h0a222.527,222.527,0,0,0,3.3-24.169,50.271,50.271,0,0,1-14.234-32.734l-.053-.1s-6.84-37.649,15.2-50.2l-8.359-3.347s17.478-19.242,41.8-17.568l-6.84-7.53s16.719-6.692,31.916,10.875c7.989,9.237,17.234,20.092,23,32.321h8.952l-3.736,8.227,13.077,8.227-13.422-1.477a45.518,45.518,0,0,1-.721,19.353,50.843,50.843,0,0,1-.375,5.077l.187,3.379s-.2-.315-.563-.876a50.469,50.469,0,0,1-22.334,33.587c-5.52,13.13-6.377,26.841-5.309,38.811l.006-.031s59.562,30.094,71.341,37.828h1.984s4.729,1.577,7.881,20.491,17.339,129.249,17.339,129.249,12.609,12.609,9.456,18.913-6.3,3.153-4.728,9.458a50.483,50.483,0,0,1,1.577,11.034l-17.5,59.063c.109.532.162.832.162.832a32.918,32.918,0,0,1-1.646,4.177l-5.709,19.268a72.063,72.063,0,0,0,2.367-13.969c-7.151,8.669-18.583,9.583-29.464,6.278.246,43.517-1.085,82.187-6.529,83.547a1.5,1.5,0,0,1-.339.045l.339,34.631-12.608,110.334s0,18.915-3.153,25.219,1.577,4.728,3.153,14.187-3.153,36.251-3.153,36.251l-12.61,143.434a26.143,26.143,0,0,1-10.283,7.3l1.18,31.257h0l31.169,33.95s37.829,11.034,42.557,31.523c3.327,14.413-26.875,20.248-47.28,20.247C-4329.611,6179.267-4336.478,6178.229-4338.348,6176.358Zm40.509-613.016c-1.5-2.568-2.983-6.126-1.1-8.005,3.153-3.151,1.577-4.728,1.577-6.3s-1.577-1.576,0-7.881a59.019,59.019,0,0,0,1.576-12.61s-6.3-3.151-4.729-6.3,0-29.947,0-29.947l-5.838-10.425c-.3,1.647-.467,2.542-.467,2.542s1.661,35.713,2.662,77.434A56.2,56.2,0,0,1-4297.839,5563.342Zm-212.315-75.781-5.475,35.4c7.565-8.386,11.554-30.828,13.418-58.3Zm233.8,127.473c-.312,1.135-.526,1.774-.526,1.774Z" transform="translate(5404 -4904.004)" fill="#fff"/>
    <g id="Group_20" data-name="Group 20" transform="translate(793 241.997)">
      <path id="Path_157" data-name="Path 157" d="M60.158,649.876l-1.576,52.014H83.8l22.067-20.49-12.61-40.981Z" transform="translate(33.754 202.373)" fill="#a0616a"/>
      <path id="Path_158" data-name="Path 158" d="M117.582,674.419v91.419l50.438-7.881-3.152-83.538Z" transform="translate(67.75 221.963)" fill="#a0616a"/>
      <path id="Path_159" data-name="Path 159" d="M49.541,521.173,62.15,707.164s-6.3,22.067-1.576,28.372,4.729,6.3,1.576,12.61-9.457,7.881-4.729,12.61a34.988,34.988,0,0,1,6.3,7.881L79.489,890s-9.457,25.219,44.133-12.61l3.152-102.453s-6.3-20.491,0-23.643,9.457-3.152,7.881-9.457,0-6.3,0-11.033,3.152-6.3,3.152-11.033-3.152-15.762-3.152-15.762l22.067-102.453L174.06,716.621s-7.881,25.219,0,34.676l-6.3,179.686s44.134,22.067,63.048,0l12.61-143.434s4.729-26.8,3.152-36.253-6.3-7.881-3.152-14.186,3.152-25.219,3.152-25.219l12.61-110.334L257.6,440.787H57.422Z" transform="translate(12.848 -21.992)" fill="#2f2e41"/>
      <path id="Path_160" data-name="Path 160" d="M111.078,747.689l-28.372-9.457s-29.948,56.743-33.1,58.319-26.8,45.71,6.3,44.133,59.9-44.133,59.9-44.133,34.676-39.4,29.948-52.015-18.647-21.2-18.647-21.2S122.112,757.146,111.078,747.689Z" transform="translate(6.477 140.812)" fill="#2f2e41"/>
      <path id="Path_161" data-name="Path 161" d="M139.785,800.741s-6.3-18.914-9.457-15.762-22.067,55.167-7.881,56.743,63.048,11.033,69.353,17.338,69.353,3.152,64.624-17.338S213.866,810.2,213.866,810.2L182.7,776.248s-35.031,4-31.878,13.459C150.818,789.707,150.818,802.317,139.785,800.741Z" transform="translate(51.852 171.299)" fill="#2f2e41"/>
      <circle id="Ellipse_68" data-name="Ellipse 68" cx="50.438" cy="50.438" r="50.438" transform="translate(153.02 27.11)" fill="#a0616a"/>
      <path id="Path_162" data-name="Path 162" d="M123.173,239.787s-1.576,50.438-15.762,63.048,37.829,53.591,81.962,28.372c0,0-20.491-44.133,0-80.386Z" transform="translate(44.82 -137.808)" fill="#a0616a"/>
      <path id="Path_163" data-name="Path 163" d="M218.161,294.942h-8.524s-52.241,17.6-71.508-19.573l-28.725.659L60.541,558.167s67.776-7.881,86.691,0,108.757-14.186,108.757-14.186Z" transform="translate(19.186 -117.306)" fill="#d0cde1"/>
      <circle id="Ellipse_69" data-name="Ellipse 69" cx="4.729" cy="4.729" r="4.729" transform="translate(138.834 361.264)" fill="none" stroke="#3f3d56" stroke-miterlimit="10" stroke-width="1"/>
      <circle id="Ellipse_70" data-name="Ellipse 70" cx="4.729" cy="4.729" r="4.729" transform="translate(124.648 421.159)" fill="none" stroke="#3f3d56" stroke-miterlimit="10" stroke-width="1"/>
      <path id="Path_164" data-name="Path 164" d="M122.608,204.784l-8.359-3.346s17.478-19.242,41.8-17.569l-6.839-7.53s16.718-6.693,31.916,10.876c7.989,9.236,17.233,20.091,23,32.321h8.953l-3.736,8.227,13.077,8.227-13.422-1.478a45.522,45.522,0,0,1-1.269,21.306l.36,6.5S192.52,238.248,192.52,234.9v8.366s-8.359-7.53-8.359-12.549l-4.559,5.856-2.28-9.2-28.117,9.2,4.559-7.529-17.478,2.51,6.839-9.2s-19.758,10.876-20.518,20.079-10.638,20.915-10.638,20.915l-4.559-8.366S100.572,217.332,122.608,204.784Z" transform="translate(45.614 -175.087)" fill="#2f2e41"/>
      <path id="Path_165" data-name="Path 165" d="M173.967,261.939,144.853,277.46l-58.319,6.3S102.3,477.637,75.5,502.856c0,0-91.419,105.605-58.319,122.943s93,52.014,111.91,25.219S190.469,303.161,173.967,261.939Z" transform="translate(-9.959 -125.044)" fill="#3f3d56"/>
      <path id="Path_166" data-name="Path 166" d="M153.092,275.787s71.748,36.253,73.324,39.4-23.643,140.281-23.643,140.281,9.457,203.329-3.152,206.482-28.372-159.2-28.372-159.2S150.7,286.82,153.092,275.787Z" transform="translate(72.401 -117.064)" fill="#3f3d56"/>
      <path id="Path_167" data-name="Path 167" d="M19.45,486.939S5.264,575.206,44.669,570.478s6.3-86.691,6.3-86.691Z" transform="translate(-5.924 2.784)" fill="#a0616a"/>
      <path id="Path_168" data-name="Path 168" d="M214.483,445.252s-32.894-17.826-44.818,4.485S219.211,508.3,231.821,468.9C231.821,468.9,227.092,442.1,214.483,445.252Z" transform="translate(81.183 -23.305)" fill="#a0616a"/>
      <path id="Path_169" data-name="Path 169" d="M201.336,299.787h12.61s4.729,1.576,7.881,20.491,17.338,129.248,17.338,129.248,12.61,12.609,9.457,18.914-6.3,3.152-4.729,9.457a50.388,50.388,0,0,1,1.576,11.033l-25.219,85.115s14.186-42.557-18.914-50.438c0,0-6.3-7.881-3.152-11.033s1.576-4.729,1.576-6.3-1.576-1.576,0-7.881a59.05,59.05,0,0,0,1.576-12.609s-6.3-3.152-4.729-6.3,0-29.948,0-29.948l-22.067-39.4Z" transform="translate(84.872 -103.236)" fill="#3f3d56"/>
      <path id="Path_170" data-name="Path 170" d="M92.766,280.516l-7.881-4.729s-28.372,15.762-36.253,77.234-26.8,122.943-26.8,122.943L12.82,615.969l43.694-4.453L80.157,458.625l26.8-77.234Z" transform="translate(-8.311 -117.064)" fill="#3f3d56"/>
    </g>
    <g id="Group_58" data-name="Group 58" transform="translate(2 -48)">
      <text id="PENGUSAHA" transform="translate(670 891.383)" fill="#2f2e41" font-size="80" font-family="Arial-Black, Arial" font-weight="800" letter-spacing="0.006em"><tspan x="40px" y="0">PENGUSAHA</tspan></text>
      <text id="PENGUSAHA-2" data-name="PENGUSAHA" transform="translate(677.367 879.807)" fill="#fff" font-size="80" font-family="Arial-Black, Arial" font-weight="800" letter-spacing="0.006em"><tspan x="40px" y="0">PENGUSAHA</tspan></text>
    </g>
  </g>
</svg>
