<svg xmlns="http://www.w3.org/2000/svg" width="500" height="500" viewBox="0 0 500 500">
  <path id="whatsapp-brands" d="M425.112,104.656A245.9,245.9,0,0,0,249.888,32C113.281,32,2.121,143.161,2.121,279.768A248.034,248.034,0,0,0,35.156,403.652L0,532l131.362-34.487a247.013,247.013,0,0,0,118.415,30.134h.112C386.384,527.647,500,416.487,500,279.879,500,213.7,471.875,151.531,425.112,104.656ZM249.888,485.906a205.57,205.57,0,0,1-104.911-28.683l-7.478-4.464L59.6,473.183l20.759-76-4.911-7.812a205.255,205.255,0,0,1-31.473-109.6c0-113.5,92.411-205.915,206.027-205.915a204.107,204.107,0,0,1,145.536,60.379c38.839,38.951,62.723,90.625,62.612,145.647C458.147,393.5,363.393,485.906,249.888,485.906ZM362.835,331.665c-6.138-3.125-36.607-18.08-42.3-20.089-5.692-2.121-9.821-3.125-13.951,3.125s-15.96,20.089-19.643,24.33c-3.571,4.13-7.254,4.688-13.393,1.563-36.384-18.192-60.268-32.478-84.263-73.661-6.362-10.938,6.362-10.156,18.192-33.817,2.009-4.129,1-7.7-.558-10.826s-13.951-33.594-19.085-45.982c-5.022-12.054-10.156-10.379-13.951-10.6-3.571-.223-7.7-.223-11.83-.223a22.934,22.934,0,0,0-16.518,7.7c-5.692,6.25-21.652,21.205-21.652,51.674s22.21,59.933,25.223,64.063c3.125,4.129,43.638,66.629,105.8,93.527,39.286,16.964,54.688,18.415,74.33,15.513,11.942-1.786,36.607-14.955,41.741-29.464s5.134-26.9,3.571-29.464C373.1,336.241,368.973,334.679,362.835,331.665Z" transform="translate(0 -32)" fill="#fff"/>
</svg>
