<svg xmlns="http://www.w3.org/2000/svg" width="2072.728" height="336.716" viewBox="0 0 2072.728 336.716">
  <path id="Subtraction_1" data-name="Subtraction 1" d="M-11103.831,3297.715h0V3296.7l-74.823.917,6.317-86.344,8.836-120.831a43.49,43.49,0,0,1,4.243-5.274,97.5,97.5,0,0,1,14.459-12.741,150.489,150.489,0,0,1,27.262-15.585,222.921,222.921,0,0,1,42.654-13.807c20.647-4.586,43.848-7.129,68.957-7.557,62.719-1.067,109.925-1.586,144.317-1.586s55.594.519,64.772,1.586c1.648.192,3.514.486,5.673.828a199.441,199.441,0,0,0,33.932,2.794c8.934,0,18.725-.512,29.1-1.521,12.161-1.182,25.521-3.085,39.707-5.655,16.059-2.909,33.629-6.754,52.222-11.429,20.594-5.177,43.016-11.517,66.642-18.843,47.238-14.646,81.851-25.026,108.408-31.51,26.256-6.41,45.049-9.145,62.839-9.145,21.959,0,42.445,4.2,73.455,10.548l.141.029c4.073.834,8.286,1.7,12.731,2.6,18.16,3.678,32.362,7.755,43.42,12.464a114.286,114.286,0,0,1,20.982,11.765c7.145,4.826,13.313,8.993,25.931,12.161,13.811,3.468,34.215,5.339,64.215,5.89,59.729,1.1,103.069,1.585,140.529,1.585s71.689-.489,110.986-1.585c10.714-.3,19.1-.445,25.629-.445,10.275,0,14.983.353,20.436.761h0c.867.065,1.806.135,2.794.206,7.051.5,16.437.967,37.189.967,21.475,0,51.808-.487,92.733-1.49,7.062-.173,14.071-.261,20.835-.261,17.06,0,33.367.562,48.47,1.671,13.629,1,26.755,2.483,39.014,4.405,10.872,1.7,21.118,3.742,31.325,6.228,8.316,2.025,16.627,4.36,25.4,7.139,7.235,2.29,13.781,4.555,20.11,6.745l.022.008.037.013c9.915,3.43,19.28,6.67,28.522,8.963a117.753,117.753,0,0,0,29.063,3.715c3.8,0,7.754-.192,11.741-.572,18.572-1.767,34.579-3.7,48.935-5.905,12.819-1.97,23.167-3.97,33.174-5.9l.014,0c12.234-2.365,24.885-4.81,42.122-7.215,24.755-3.454,42.095-5.368,59.848-6.606,18.586-1.3,37.844-1.85,64.394-1.85,31.518,0,44.905,11.094,54.68,19.2,5.66,4.691,10.13,8.4,16.22,8.4a15.875,15.875,0,0,0,1.829-.108,2.32,2.32,0,0,1,.262-.015c1.106,0,2.285.823,3.5,2.446a33.223,33.223,0,0,1,3.657,6.911c2.349,5.643,4.9,13.942,7.57,24.668,4.5,18.069,9.443,43.254,14.683,74.854,8.869,53.5,15.712,108.34,15.778,108.879l-77.905.953v14.443c-134.991-.1-295.106-.149-475.9-.149-391.607,0-876.8.233-1442.1.693Z" transform="translate(11178.655 -2960.999)" fill="#fff"/>
</svg>
