<svg xmlns="http://www.w3.org/2000/svg" width="1748.193" height="1020.145" viewBox="0 0 1748.193 1020.145">
  <g id="Group_91" data-name="Group 91" transform="translate(-4197.333 6471.125)">
    <g id="Group_33" data-name="Group 33" transform="translate(5067.333 -5877)">
      <g id="Ellipse_71" data-name="Ellipse 71" transform="translate(12.552)" fill="none" stroke="#fcfcfc" stroke-width="4">
        <circle cx="18.085" cy="18.085" r="18.085" stroke="none"/>
        <circle cx="18.085" cy="18.085" r="16.085" fill="none"/>
      </g>
      <g id="Ellipse_72" data-name="Ellipse 72" transform="translate(0 17.829)" fill="none" stroke="#2f2e41" stroke-width="4">
        <circle cx="18.085" cy="18.085" r="18.085" stroke="none"/>
        <circle cx="18.085" cy="18.085" r="16.085" fill="none"/>
      </g>
    </g>
    <g id="Group_35" data-name="Group 35" transform="translate(4318 -6589)">
      <line id="Line_17" data-name="Line 17" x2="14.142" transform="translate(259.115 207.115) rotate(45)" fill="none" stroke="#2f2e41" stroke-linecap="round" stroke-width="4"/>
      <line id="Line_18" data-name="Line 18" x2="14.142" transform="translate(269.115 207.115) rotate(135)" fill="none" stroke="#2f2e41" stroke-linecap="round" stroke-width="4"/>
    </g>
    <g id="Group_36" data-name="Group 36" transform="translate(4650 -6057)">
      <line id="Line_17-2" data-name="Line 17" x2="14.142" transform="translate(259.115 207.115) rotate(45)" fill="none" stroke="#2f2e41" stroke-linecap="round" stroke-width="4"/>
      <line id="Line_18-2" data-name="Line 18" x2="14.142" transform="translate(269.115 207.115) rotate(135)" fill="none" stroke="#2f2e41" stroke-linecap="round" stroke-width="4"/>
    </g>
    <g id="Group_37" data-name="Group 37" transform="translate(4760 -6388)">
      <line id="Line_17-3" data-name="Line 17" x2="14.142" transform="translate(259.115 207.115) rotate(45)" fill="none" stroke="#2f2e41" stroke-linecap="round" stroke-width="4"/>
      <line id="Line_18-3" data-name="Line 18" x2="14.142" transform="translate(269.115 207.115) rotate(135)" fill="none" stroke="#2f2e41" stroke-linecap="round" stroke-width="4"/>
    </g>
    <g id="Group_38" data-name="Group 38" transform="translate(4279 -5907)">
      <line id="Line_17-4" data-name="Line 17" x2="14.142" transform="translate(259.115 207.115) rotate(45)" fill="none" stroke="#2f2e41" stroke-linecap="round" stroke-width="4"/>
      <line id="Line_18-4" data-name="Line 18" x2="14.142" transform="translate(269.115 207.115) rotate(135)" fill="none" stroke="#2f2e41" stroke-linecap="round" stroke-width="4"/>
    </g>
    <g id="Ellipse_75" data-name="Ellipse 75" transform="translate(4939 -6011)" fill="#e8ff1a" stroke="#2f2e41" stroke-width="4">
      <circle cx="10" cy="10" r="10" stroke="none"/>
      <circle cx="10" cy="10" r="8" fill="none"/>
    </g>
    <g id="Ellipse_77" data-name="Ellipse 77" transform="translate(4204 -6049)" fill="#e8ff1a" stroke="#2f2e41" stroke-width="4">
      <circle cx="10" cy="10" r="10" stroke="none"/>
      <circle cx="10" cy="10" r="8" fill="none"/>
    </g>
    <g id="Path_320" data-name="Path 320" transform="translate(4329 -5769)" fill="#e8ff1a">
      <path d="M 10 18 C 5.588789939880371 18 2 14.41121006011963 2 10 C 2 5.588789939880371 5.588789939880371 2 10 2 C 14.41121006011963 2 18 5.588789939880371 18 10 C 18 12.27270030975342 17.04295921325684 14.36590003967285 15.23235034942627 16.05330085754395 L 15.22947978973389 16.05598068237305 L 15.22661018371582 16.05867004394531 C 13.93249034881592 17.27426910400391 11.97861957550049 18 10 18 Z" stroke="none"/>
      <path d="M 10 4 C 6.691590309143066 4 4 6.691590309143066 4 10 C 4 13.30841064453125 6.691590309143066 16 10 16 C 11.74582958221436 16 13.13726997375488 15.2772798538208 13.85731983184814 14.60091972351074 L 13.86303997039795 14.59555053710938 L 13.86878967285156 14.59018993377686 C 15.28295993804932 13.27225017547607 16 11.72789001464844 16 10 C 16 6.691590309143066 13.30841064453125 4 10 4 M 10 0 C 15.52285003662109 0 20 4.477149963378906 20 10 C 20 12.88290977478027 18.78005981445313 15.48089027404785 16.59590911865234 17.51642036437988 C 15.04094982147217 18.97702980041504 12.63994026184082 20 10 20 C 4.477149963378906 20 0 15.52285003662109 0 10 C 0 4.477149963378906 4.477149963378906 0 10 0 Z" stroke="none" fill="#2f2e41"/>
    </g>
    <g id="Ellipse_79" data-name="Ellipse 79" transform="translate(5223 -6323)" fill="#e8ff1a" stroke="#2f2e41" stroke-width="4">
      <circle cx="10" cy="10" r="10" stroke="none"/>
      <circle cx="10" cy="10" r="8" fill="none"/>
    </g>
    <g id="Group_39" data-name="Group 39" transform="translate(3960 -6035)">
      <line id="Line_17-5" data-name="Line 17" x2="14.142" transform="translate(259.115 207.115) rotate(45)" fill="none" stroke="#2f2e41" stroke-linecap="round" stroke-width="4"/>
      <line id="Line_18-5" data-name="Line 18" x2="14.142" transform="translate(269.115 207.115) rotate(135)" fill="none" stroke="#2f2e41" stroke-linecap="round" stroke-width="4"/>
    </g>
    <g id="Group_41" data-name="Group 41" transform="translate(4463.333 -6231)">
      <g id="Ellipse_71-2" data-name="Ellipse 71" transform="translate(12.552)" fill="none" stroke="#fcfcfc" stroke-width="4">
        <circle cx="18.085" cy="18.085" r="18.085" stroke="none"/>
        <circle cx="18.085" cy="18.085" r="16.085" fill="none"/>
      </g>
      <g id="Ellipse_72-2" data-name="Ellipse 72" transform="translate(0 17.829)" fill="none" stroke="#2f2e41" stroke-width="4">
        <circle cx="18.085" cy="18.085" r="18.085" stroke="none"/>
        <circle cx="18.085" cy="18.085" r="16.085" fill="none"/>
      </g>
    </g>
    <g id="Group_42" data-name="Group 42" transform="translate(4952.333 -6426)">
      <g id="Ellipse_71-3" data-name="Ellipse 71" transform="translate(12.552)" fill="none" stroke="#fcfcfc" stroke-width="4">
        <circle cx="18.085" cy="18.085" r="18.085" stroke="none"/>
        <circle cx="18.085" cy="18.085" r="16.085" fill="none"/>
      </g>
      <g id="Ellipse_72-3" data-name="Ellipse 72" transform="translate(0 17.829)" fill="none" stroke="#2f2e41" stroke-width="4">
        <circle cx="18.085" cy="18.085" r="18.085" stroke="none"/>
        <circle cx="18.085" cy="18.085" r="16.085" fill="none"/>
      </g>
    </g>
    <g id="Group_43" data-name="Group 43" transform="translate(5085.333 -6098)">
      <g id="Ellipse_71-4" data-name="Ellipse 71" transform="translate(12.552)" fill="none" stroke="#fcfcfc" stroke-width="4">
        <circle cx="18.085" cy="18.085" r="18.085" stroke="none"/>
        <circle cx="18.085" cy="18.085" r="16.085" fill="none"/>
      </g>
      <g id="Ellipse_72-4" data-name="Ellipse 72" transform="translate(0 17.829)" fill="none" stroke="#2f2e41" stroke-width="4">
        <circle cx="18.085" cy="18.085" r="18.085" stroke="none"/>
        <circle cx="18.085" cy="18.085" r="16.085" fill="none"/>
      </g>
    </g>
    <g id="Group_44" data-name="Group 44" transform="translate(4619.333 -6071)">
      <g id="Ellipse_71-5" data-name="Ellipse 71" transform="translate(12.552)" fill="none" stroke="#fcfcfc" stroke-width="4">
        <circle cx="18.085" cy="18.085" r="18.085" stroke="none"/>
        <circle cx="18.085" cy="18.085" r="16.085" fill="none"/>
      </g>
      <g id="Ellipse_72-5" data-name="Ellipse 72" transform="translate(0 17.829)" fill="none" stroke="#2f2e41" stroke-width="4">
        <circle cx="18.085" cy="18.085" r="18.085" stroke="none"/>
        <circle cx="18.085" cy="18.085" r="16.085" fill="none"/>
      </g>
    </g>
    <g id="Group_70" data-name="Group 70" transform="translate(4061.5 -6642)">
      <g id="Group_26" data-name="Group 26" transform="translate(6 -26)">
        <line id="Line_10" data-name="Line 10" y1="84" x2="125" transform="translate(1725.5 242.5)" fill="none" stroke="#fff" stroke-linecap="round" stroke-width="7"/>
        <line id="Line_11" data-name="Line 11" y1="84" x2="125" transform="translate(1725.5 284.5)" fill="none" stroke="#fff" stroke-linecap="round" stroke-width="7"/>
        <line id="Line_12" data-name="Line 12" y1="84" x2="125" transform="translate(1725.5 326.5)" fill="none" stroke="#fff" stroke-linecap="round" stroke-width="7"/>
        <line id="Line_13" data-name="Line 13" y1="84" x2="125" transform="translate(1725.5 369.5)" fill="none" stroke="#fff" stroke-linecap="round" stroke-width="7"/>
        <line id="Line_14" data-name="Line 14" y1="84" x2="125" transform="translate(1725.5 411.5)" fill="none" stroke="#fff" stroke-linecap="round" stroke-width="7"/>
        <line id="Line_15" data-name="Line 15" y1="84" x2="125" transform="translate(1725.5 453.5)" fill="none" stroke="#fff" stroke-linecap="round" stroke-width="7"/>
      </g>
      <g id="Group_25" data-name="Group 25" transform="translate(-18 7)" opacity="0.78">
        <line id="Line_10-2" data-name="Line 10" y1="84" x2="125" transform="translate(1725.5 242.5)" fill="none" stroke="#2f2e41" stroke-linecap="round" stroke-width="7"/>
        <line id="Line_11-2" data-name="Line 11" y1="84" x2="125" transform="translate(1725.5 284.5)" fill="none" stroke="#2f2e41" stroke-linecap="round" stroke-width="7"/>
        <line id="Line_12-2" data-name="Line 12" y1="84" x2="125" transform="translate(1725.5 326.5)" fill="none" stroke="#2f2e41" stroke-linecap="round" stroke-width="7"/>
        <line id="Line_13-2" data-name="Line 13" y1="84" x2="125" transform="translate(1725.5 369.5)" fill="none" stroke="#2f2e41" stroke-linecap="round" stroke-width="7"/>
        <line id="Line_14-2" data-name="Line 14" y1="84" x2="125" transform="translate(1725.5 411.5)" fill="none" stroke="#2f2e41" stroke-linecap="round" stroke-width="7"/>
        <line id="Line_15-2" data-name="Line 15" y1="84" x2="125" transform="translate(1725.5 453.5)" fill="none" stroke="#2f2e41" stroke-linecap="round" stroke-width="7"/>
      </g>
    </g>
    <g id="Group_71" data-name="Group 71" transform="translate(4647 -6599)">
      <line id="Line_17-6" data-name="Line 17" x2="14.142" transform="translate(259.115 207.115) rotate(45)" fill="none" stroke="#2f2e41" stroke-linecap="round" stroke-width="4"/>
      <line id="Line_18-6" data-name="Line 18" x2="14.142" transform="translate(269.115 207.115) rotate(135)" fill="none" stroke="#2f2e41" stroke-linecap="round" stroke-width="4"/>
    </g>
    <g id="Group_72" data-name="Group 72" transform="translate(4608 -5917)">
      <line id="Line_17-7" data-name="Line 17" x2="14.142" transform="translate(259.115 207.115) rotate(45)" fill="none" stroke="#2f2e41" stroke-linecap="round" stroke-width="4"/>
      <line id="Line_18-7" data-name="Line 18" x2="14.142" transform="translate(269.115 207.115) rotate(135)" fill="none" stroke="#2f2e41" stroke-linecap="round" stroke-width="4"/>
    </g>
    <g id="Ellipse_149" data-name="Ellipse 149" transform="translate(4777 -6135)" fill="#e8ff1a" stroke="#2f2e41" stroke-width="4">
      <circle cx="10" cy="10" r="10" stroke="none"/>
      <circle cx="10" cy="10" r="8" fill="none"/>
    </g>
    <g id="Path_337" data-name="Path 337" transform="translate(4658 -5779)" fill="#e8ff1a">
      <path d="M 10 18 C 5.588789939880371 18 2 14.41121006011963 2 10 C 2 5.588789939880371 5.588789939880371 2 10 2 C 14.41121006011963 2 18 5.588789939880371 18 10 C 18 12.27270030975342 17.04295921325684 14.36590003967285 15.23235034942627 16.05330085754395 L 15.22947978973389 16.05598068237305 L 15.22661018371582 16.05867004394531 C 13.93249034881592 17.27426910400391 11.97861957550049 18 10 18 Z" stroke="none"/>
      <path d="M 10 4 C 6.691590309143066 4 4 6.691590309143066 4 10 C 4 13.30841064453125 6.691590309143066 16 10 16 C 11.74582958221436 16 13.13726997375488 15.2772798538208 13.85731983184814 14.60091972351074 L 13.86303997039795 14.59555053710938 L 13.86878967285156 14.59018993377686 C 15.28295993804932 13.27225017547607 16 11.72789001464844 16 10 C 16 6.691590309143066 13.30841064453125 4 10 4 M 10 0 C 15.52285003662109 0 20 4.477149963378906 20 10 C 20 12.88290977478027 18.78005981445313 15.48089027404785 16.59590911865234 17.51642036437988 C 15.04094982147217 18.97702980041504 12.63994026184082 20 10 20 C 4.477149963378906 20 0 15.52285003662109 0 10 C 0 4.477149963378906 4.477149963378906 0 10 0 Z" stroke="none" fill="#2f2e41"/>
    </g>
    <g id="Group_73" data-name="Group 73" transform="translate(4108 -6192)">
      <line id="Line_17-8" data-name="Line 17" x2="14.142" transform="translate(259.115 207.115) rotate(45)" fill="none" stroke="#2f2e41" stroke-linecap="round" stroke-width="4"/>
      <line id="Line_18-8" data-name="Line 18" x2="14.142" transform="translate(269.115 207.115) rotate(135)" fill="none" stroke="#2f2e41" stroke-linecap="round" stroke-width="4"/>
    </g>
    <g id="Group_74" data-name="Group 74" transform="translate(4197.333 -6313)">
      <g id="Ellipse_71-6" data-name="Ellipse 71" transform="translate(12.552)" fill="none" stroke="#fcfcfc" stroke-width="4">
        <circle cx="18.085" cy="18.085" r="18.085" stroke="none"/>
        <circle cx="18.085" cy="18.085" r="16.085" fill="none"/>
      </g>
      <g id="Ellipse_72-6" data-name="Ellipse 72" transform="translate(0 17.829)" fill="none" stroke="#2f2e41" stroke-width="4">
        <circle cx="18.085" cy="18.085" r="18.085" stroke="none"/>
        <circle cx="18.085" cy="18.085" r="16.085" fill="none"/>
      </g>
    </g>
    <g id="Group_75" data-name="Group 75" transform="translate(4757.333 -5902)">
      <g id="Ellipse_71-7" data-name="Ellipse 71" transform="translate(12.552)" fill="none" stroke="#fcfcfc" stroke-width="4">
        <circle cx="18.085" cy="18.085" r="18.085" stroke="none"/>
        <circle cx="18.085" cy="18.085" r="16.085" fill="none"/>
      </g>
      <g id="Ellipse_72-7" data-name="Ellipse 72" transform="translate(0 17.829)" fill="none" stroke="#2f2e41" stroke-width="4">
        <circle cx="18.085" cy="18.085" r="18.085" stroke="none"/>
        <circle cx="18.085" cy="18.085" r="16.085" fill="none"/>
      </g>
    </g>
    <g id="Group_76" data-name="Group 76" transform="matrix(-0.996, 0.087, -0.087, -0.996, 4345.446, -5537.455)">
      <g id="Ellipse_71-8" data-name="Ellipse 71" transform="translate(12.552)" fill="none" stroke="#fcfcfc" stroke-width="4">
        <circle cx="18.085" cy="18.085" r="18.085" stroke="none"/>
        <circle cx="18.085" cy="18.085" r="16.085" fill="none"/>
      </g>
      <g id="Ellipse_72-8" data-name="Ellipse 72" transform="translate(0 17.829)" fill="none" stroke="#2f2e41" stroke-width="4">
        <circle cx="18.085" cy="18.085" r="18.085" stroke="none"/>
        <circle cx="18.085" cy="18.085" r="16.085" fill="none"/>
      </g>
    </g>
    <g id="Group_77" data-name="Group 77" transform="matrix(-0.996, 0.087, -0.087, -0.996, 6218.889, -5756.501)">
      <line id="Line_17-9" data-name="Line 17" x2="14.142" transform="translate(259.115 207.115) rotate(45)" fill="none" stroke="#2f2e41" stroke-linecap="round" stroke-width="4"/>
      <line id="Line_18-9" data-name="Line 18" x2="14.142" transform="translate(269.115 207.115) rotate(135)" fill="none" stroke="#2f2e41" stroke-linecap="round" stroke-width="4"/>
    </g>
    <g id="Group_78" data-name="Group 78" transform="matrix(-0.996, 0.087, -0.087, -0.996, 5717.849, -5379.397)">
      <line id="Line_17-10" data-name="Line 17" x2="14.142" transform="translate(259.115 207.115) rotate(45)" fill="none" stroke="#2f2e41" stroke-linecap="round" stroke-width="4"/>
      <line id="Line_18-10" data-name="Line 18" x2="14.142" transform="translate(269.115 207.115) rotate(135)" fill="none" stroke="#2f2e41" stroke-linecap="round" stroke-width="4"/>
    </g>
    <g id="Group_79" data-name="Group 79" transform="matrix(-0.996, 0.087, -0.087, -0.996, 4919.176, -5469.665)">
      <line id="Line_17-11" data-name="Line 17" x2="14.142" transform="translate(259.115 207.115) rotate(45)" fill="none" stroke="#2f2e41" stroke-linecap="round" stroke-width="4"/>
      <line id="Line_18-11" data-name="Line 18" x2="14.142" transform="translate(269.115 207.115) rotate(135)" fill="none" stroke="#2f2e41" stroke-linecap="round" stroke-width="4"/>
    </g>
    <g id="Group_80" data-name="Group 80" transform="matrix(-0.996, 0.087, -0.087, -0.996, 5536.085, -5735.913)">
      <line id="Line_17-12" data-name="Line 17" x2="14.142" transform="translate(259.115 207.115) rotate(45)" fill="none" stroke="#2f2e41" stroke-linecap="round" stroke-width="4"/>
      <line id="Line_18-12" data-name="Line 18" x2="14.142" transform="translate(269.115 207.115) rotate(135)" fill="none" stroke="#2f2e41" stroke-linecap="round" stroke-width="4"/>
    </g>
    <g id="Ellipse_150" data-name="Ellipse 150" transform="matrix(-0.996, 0.087, -0.087, -0.996, 5605.646, -5537.45)" fill="#e8ff1a" stroke="#2f2e41" stroke-width="4">
      <circle cx="10" cy="10" r="10" stroke="none"/>
      <circle cx="10" cy="10" r="8" fill="none"/>
    </g>
    <g id="Ellipse_151" data-name="Ellipse 151" transform="matrix(-0.996, 0.087, -0.087, -0.996, 5579.442, -6272.965)" fill="#e8ff1a" stroke="#2f2e41" stroke-width="4">
      <circle cx="10" cy="10" r="10" stroke="none"/>
      <circle cx="10" cy="10" r="8" fill="none"/>
    </g>
    <g id="Path_338" data-name="Path 338" transform="matrix(-0.996, 0.087, -0.087, -0.996, 5311.402, -6124.038)" fill="#e8ff1a">
      <path d="M 10 18 C 5.588789939880371 18 2 14.41121006011963 2 10 C 2 5.588789939880371 5.588789939880371 2 10 2 C 14.41121006011963 2 18 5.588789939880371 18 10 C 18 12.27270030975342 17.04295921325684 14.36590003967285 15.23235034942627 16.05330085754395 L 15.22947978973389 16.05598068237305 L 15.22661018371582 16.05867004394531 C 13.93249034881592 17.27426910400391 11.97861957550049 18 10 18 Z" stroke="none"/>
      <path d="M 10 4 C 6.691590309143066 4 4 6.691590309143066 4 10 C 4 13.30841064453125 6.691590309143066 16 10 16 C 11.74582958221436 16 13.13726997375488 15.2772798538208 13.85731983184814 14.60091972351074 L 13.86303997039795 14.59555053710938 L 13.86878967285156 14.59018993377686 C 15.28295993804932 13.27225017547607 16 11.72789001464844 16 10 C 16 6.691590309143066 13.30841064453125 4 10 4 M 10 0 C 15.52285003662109 0 20 4.477149963378906 20 10 C 20 12.88290977478027 18.78005981445313 15.48089027404785 16.59590911865234 17.51642036437988 C 15.04094982147217 18.97702980041504 12.63994026184082 20 10 20 C 4.477149963378906 20 0 15.52285003662109 0 10 C 0 4.477149963378906 4.477149963378906 0 10 0 Z" stroke="none" fill="#2f2e41"/>
    </g>
    <g id="Ellipse_152" data-name="Ellipse 152" transform="matrix(-0.996, 0.087, -0.087, -0.996, 4803.211, -5452.724)" fill="#e8ff1a" stroke="#2f2e41" stroke-width="4">
      <circle cx="10" cy="10" r="10" stroke="none"/>
      <circle cx="10" cy="10" r="8" fill="none"/>
    </g>
    <g id="Group_81" data-name="Group 81" transform="matrix(-0.996, 0.087, -0.087, -0.996, 5749.949, -6274.602)">
      <line id="Line_17-13" data-name="Line 17" x2="14.142" transform="translate(259.115 207.115) rotate(45)" fill="none" stroke="#2f2e41" stroke-linecap="round" stroke-width="4"/>
      <line id="Line_18-13" data-name="Line 18" x2="14.142" transform="translate(269.115 207.115) rotate(135)" fill="none" stroke="#2f2e41" stroke-linecap="round" stroke-width="4"/>
    </g>
    <g id="Group_82" data-name="Group 82" transform="matrix(-0.996, 0.087, -0.087, -0.996, 5783.457, -5999.01)">
      <g id="Ellipse_71-9" data-name="Ellipse 71" transform="translate(12.552)" fill="none" stroke="#fcfcfc" stroke-width="4">
        <circle cx="18.085" cy="18.085" r="18.085" stroke="none"/>
        <circle cx="18.085" cy="18.085" r="16.085" fill="none"/>
      </g>
      <g id="Ellipse_72-9" data-name="Ellipse 72" transform="translate(0 17.829)" fill="none" stroke="#2f2e41" stroke-width="4">
        <circle cx="18.085" cy="18.085" r="18.085" stroke="none"/>
        <circle cx="18.085" cy="18.085" r="16.085" fill="none"/>
      </g>
    </g>
    <g id="Group_83" data-name="Group 83" transform="matrix(-0.996, 0.087, -0.087, -0.996, 5042.334, -5507.866)">
      <g id="Ellipse_71-10" data-name="Ellipse 71" transform="translate(12.552)" fill="none" stroke="#fcfcfc" stroke-width="4">
        <circle cx="18.085" cy="18.085" r="18.085" stroke="none"/>
        <circle cx="18.085" cy="18.085" r="16.085" fill="none"/>
      </g>
      <g id="Ellipse_72-10" data-name="Ellipse 72" transform="translate(0 17.829)" fill="none" stroke="#2f2e41" stroke-width="4">
        <circle cx="18.085" cy="18.085" r="18.085" stroke="none"/>
        <circle cx="18.085" cy="18.085" r="16.085" fill="none"/>
      </g>
    </g>
    <g id="Group_84" data-name="Group 84" transform="matrix(-0.996, 0.087, -0.087, -0.996, 4567.174, -5538.785)">
      <g id="Ellipse_71-11" data-name="Ellipse 71" transform="translate(12.552)" fill="none" stroke="#fcfcfc" stroke-width="4">
        <circle cx="18.085" cy="18.085" r="18.085" stroke="none"/>
        <circle cx="18.085" cy="18.085" r="16.085" fill="none"/>
      </g>
      <g id="Ellipse_72-11" data-name="Ellipse 72" transform="translate(0 17.829)" fill="none" stroke="#2f2e41" stroke-width="4">
        <circle cx="18.085" cy="18.085" r="18.085" stroke="none"/>
        <circle cx="18.085" cy="18.085" r="16.085" fill="none"/>
      </g>
    </g>
    <g id="Group_85" data-name="Group 85" transform="matrix(-0.996, 0.087, -0.087, -0.996, 5637.662, -5829.658)">
      <g id="Ellipse_71-12" data-name="Ellipse 71" transform="translate(12.552)" fill="none" stroke="#fcfcfc" stroke-width="4">
        <circle cx="18.085" cy="18.085" r="18.085" stroke="none"/>
        <circle cx="18.085" cy="18.085" r="16.085" fill="none"/>
      </g>
      <g id="Ellipse_72-12" data-name="Ellipse 72" transform="translate(0 17.829)" fill="none" stroke="#2f2e41" stroke-width="4">
        <circle cx="18.085" cy="18.085" r="18.085" stroke="none"/>
        <circle cx="18.085" cy="18.085" r="16.085" fill="none"/>
      </g>
    </g>
    <g id="Group_86" data-name="Group 86" transform="matrix(-0.996, 0.087, -0.087, -0.996, 5279.525, -5408.625)">
      <line id="Line_17-14" data-name="Line 17" x2="14.142" transform="translate(259.115 207.115) rotate(45)" fill="none" stroke="#2f2e41" stroke-linecap="round" stroke-width="4"/>
      <line id="Line_18-14" data-name="Line 18" x2="14.142" transform="translate(269.115 207.115) rotate(135)" fill="none" stroke="#2f2e41" stroke-linecap="round" stroke-width="4"/>
    </g>
    <g id="Group_87" data-name="Group 87" transform="matrix(-0.996, 0.087, -0.087, -0.996, 5574.721, -5409.036)">
      <line id="Line_17-15" data-name="Line 17" x2="14.142" transform="translate(259.115 207.115) rotate(45)" fill="none" stroke="#2f2e41" stroke-linecap="round" stroke-width="4"/>
      <line id="Line_18-15" data-name="Line 18" x2="14.142" transform="translate(269.115 207.115) rotate(135)" fill="none" stroke="#2f2e41" stroke-linecap="round" stroke-width="4"/>
    </g>
    <g id="Ellipse_153" data-name="Ellipse 153" transform="matrix(-0.996, 0.087, -0.087, -0.996, 5715.056, -5709.641)" fill="#e8ff1a" stroke="#2f2e41" stroke-width="4">
      <circle cx="10" cy="10" r="10" stroke="none"/>
      <circle cx="10" cy="10" r="8" fill="none"/>
    </g>
    <g id="Path_339" data-name="Path 339" transform="matrix(-0.996, 0.087, -0.087, -0.996, 5350.039, -5797.161)" fill="#e8ff1a">
      <path d="M 10 18 C 5.588789939880371 18 2 14.41121006011963 2 10 C 2 5.588789939880371 5.588789939880371 2 10 2 C 14.41121006011963 2 18 5.588789939880371 18 10 C 18 12.27270030975342 17.04295921325684 14.36590003967285 15.23235034942627 16.05330085754395 L 15.22947978973389 16.05598068237305 L 15.22661018371582 16.05867004394531 C 13.93249034881592 17.27426910400391 11.97861957550049 18 10 18 Z" stroke="none"/>
      <path d="M 10 4 C 6.691590309143066 4 4 6.691590309143066 4 10 C 4 13.30841064453125 6.691590309143066 16 10 16 C 11.74582958221436 16 13.13726997375488 15.2772798538208 13.85731983184814 14.60091972351074 L 13.86303997039795 14.59555053710938 L 13.86878967285156 14.59018993377686 C 15.28295993804932 13.27225017547607 16 11.72789001464844 16 10 C 16 6.691590309143066 13.30841064453125 4 10 4 M 10 0 C 15.52285003662109 0 20 4.477149963378906 20 10 C 20 12.88290977478027 18.78005981445313 15.48089027404785 16.59590911865234 17.51642036437988 C 15.04094982147217 18.97702980041504 12.63994026184082 20 10 20 C 4.477149963378906 20 0 15.52285003662109 0 10 C 0 4.477149963378906 4.477149963378906 0 10 0 Z" stroke="none" fill="#2f2e41"/>
    </g>
    <g id="Group_88" data-name="Group 88" transform="matrix(-0.996, 0.087, -0.087, -0.996, 5805.097, -5931.101)">
      <line id="Line_17-16" data-name="Line 17" x2="14.142" transform="translate(259.115 207.115) rotate(45)" fill="none" stroke="#2f2e41" stroke-linecap="round" stroke-width="4"/>
      <line id="Line_18-16" data-name="Line 18" x2="14.142" transform="translate(269.115 207.115) rotate(135)" fill="none" stroke="#2f2e41" stroke-linecap="round" stroke-width="4"/>
    </g>
    <g id="Group_90" data-name="Group 90" transform="matrix(-0.996, 0.087, -0.087, -0.996, 5481.333, -5677.454)">
      <g id="Ellipse_71-13" data-name="Ellipse 71" transform="translate(12.552)" fill="none" stroke="#fcfcfc" stroke-width="4">
        <circle cx="18.085" cy="18.085" r="18.085" stroke="none"/>
        <circle cx="18.085" cy="18.085" r="16.085" fill="none"/>
      </g>
      <g id="Ellipse_72-13" data-name="Ellipse 72" transform="translate(0 17.829)" fill="none" stroke="#2f2e41" stroke-width="4">
        <circle cx="18.085" cy="18.085" r="18.085" stroke="none"/>
        <circle cx="18.085" cy="18.085" r="16.085" fill="none"/>
      </g>
    </g>
  </g>
</svg>
