<svg xmlns="http://www.w3.org/2000/svg" width="589" height="758.125" viewBox="0 0 589 758.125">
  <g id="Group_67" data-name="Group 67" transform="translate(-666.367 -287.492)">
    <path id="Union_12" data-name="Union 12" d="M-6330.779,5885.348c-21.495-5.732-23.146-86.242-23.146-86.242l-.032-.187c-3.734,3.724-6.268,5.862-6.913,6.185a3.2,3.2,0,0,1-1.913-.208l-.35.286s-30.279-4.87-38.015-27.169a35.24,35.24,0,0,1-4.144-5.865c-8.6-15.762,7.164-73.08,7.164-73.08a593.551,593.551,0,0,0-67.348-10.03c-20.738-1.729-42-31.076-55.609-54.1-1.1,19.762-2.835,45.2-4.573,46.936-2.867,2.867,8.6,7.165,12.9,10.031s2.865,2.866,0,12.9,4.3,11.463,7.164,11.463-1.434,24.358-5.732,25.792a44.593,44.593,0,0,1-4.835,1c1.875,14.458,5.947,48.052,4.835,59.179-1.434,14.329-31.524,2.866-31.524,2.866a230.121,230.121,0,0,0-34.392-20.062c-18.627-8.6-14.329-32.956-14.329-32.956,1.738-9.554,11.37-10.685,18.689-10.094-.157-4.281,2.542-10.026,4.239-14.266,2.866-7.166,1.432-27.226-5.732-44.421s-11.463-104.6-12.9-128.963c-.787-13.383,1.886-18.981,4.455-21.309,2.284-19.182,29.12-23.234,42.832-25.978,10.234-2.046,38.745,21.492,54.2,35.111,1.218-35.779,13.145-122.52,13.145-122.52l-.545-4.181c-8.859,13.318-24.335,31.827-41.011,29.974-25.792-2.865-14.329-42.988-14.329-42.988s15.762-30.092,15.762-48.72c0-11.745,10.823-21.781,18.821-27.594l4.106-13.96s-7.874-18.775-7.476-33.095l-10.715-2.983s-12.869-2.569-5-27.7,23.458-18.1,23.458-18.1l25.08,7.288,5.88-5.708,11.884,2.493,9.533-9.463-6.434-2.573-.165-.66c-.662.144-1.324.262-1.985.349-9.672,1.273-13.119-6.423-12.38-9.735s4.345-14.385,11.682-17.086c3-1.1,7.431-.29,11.631.523,3.325.646,6.5,1.29,8.7.983l.641-1.821a41.377,41.377,0,0,1,2.66-10.46,53.527,53.527,0,0,1,29.366-29.936c9.076-3.792,21.073-7.222,33.792-6.479.625-1.059,3.346-1.489,6.458-.958s5.531,1.837,5.775,3.042a54.113,54.113,0,0,1,18.762,9.83c30.884,24.653,25.441,61.541,23.2,71.776q-.566,2.563-.964,5.153a22.835,22.835,0,0,1-1.5,5.572,56.9,56.9,0,0,1-20.5,34.308c-1.553,8.5-1.593,18.735-1.271,26.614,5.776-.8,8.982-1.2,8.982-1.2l12.9,4.3c4.3,1.432,8.6,0,15.762,0s15.762,7.165,25.792,8.6,18.629,35.824,18.629,35.824-20.062,70.214-20.062,74.514-4.3,12.9-12.9,21.493-2.866,14.329,2.865,24.36-5.731,20.061-11.463,28.659,11.463,106.037,11.463,117.5c0,3.129-.748,5.3-3.378,6.941,3.837,14.043-6.1,47.612-19.548,89.065q-1.677,5.169-3.629,10.137c2.292,8.122,2.31,15.688.763,18.52-4.188,7.667,8.436,33.171,17.2,55.884,7.237,18.763-17.2,81.676-17.2,81.676s-3.667,7.337-16.141,7.337A43.164,43.164,0,0,1-6330.779,5885.348Zm-136.873-568.9c25.017-6.066,68.2-16.583,75.257-18.6a12.673,12.673,0,0,1,6.507.1c.832-4.178,1.5-8.485,2.026-12.343a57.057,57.057,0,0,1-25-18.339l-45.335,43.938-4.542,1.139-7-1.967Zm39.732-100.925c-.318-.295-.582-.546-.792-.749-.217.144-.445.293-.684.447Z" transform="translate(7350.669 -4859.335)" fill="#fff"/>
    <g id="Group_59" data-name="Group 59" transform="translate(735.669 304.665)">
      <path id="Path_184" data-name="Path 184" d="M729.44,414.581l-32.854-9.147s-12.869-2.569-5.005-27.7,23.458-18.1,23.458-18.1l29.145,8.467,11.507,3.553L739.5,394.367l-1.357,15.139Z" transform="translate(-612.61 -275.334)" fill="#3f3d56"/>
      <path id="Path_185" data-name="Path 185" d="M679.094,273.894,689.4,315.066l-52.815,51.187-4.541,1.138-12.113-3.4-10.308-41.172,10.442-10.979-10.674-2.8,22.776-22.11,11.885,2.493,9.533-9.465-6.435-2.572-.606-2.422,7.8-6.134Z" transform="translate(-498.782 -201.051)" fill="#3f3d56"/>
      <path id="Path_186" data-name="Path 186" d="M623.5,322l6.822,27.246L661.8,319.485l-7.881-27.625Z" transform="translate(-492.673 -191.081)" fill="#e5b209"/>
      <path id="Path_187" data-name="Path 187" d="M679.094,273.894l1.446,5.773-52.518,51.09-4.541,1.136-11.733-3.174-.648-.016-1.474-5.888,10.442-10.979-10.674-2.8,22.776-22.11,11.885,2.493,9.533-9.465-6.435-2.572-.606-2.422,7.8-6.134Z" transform="translate(-498.782 -201.051)" fill="none" stroke="#3f3d56" stroke-miterlimit="10" stroke-width="1"/>
      <ellipse id="Ellipse_80" data-name="Ellipse 80" cx="4.369" cy="2.965" rx="4.369" ry="2.965" transform="translate(151.099 70.507) rotate(-14.057)" fill="#e5b209"/>
      <ellipse id="Ellipse_81" data-name="Ellipse 81" cx="4.369" cy="2.965" rx="4.369" ry="2.965" transform="translate(117.734 114.57) rotate(-14.057)" fill="#e5b209"/>
      <path id="Path_188" data-name="Path 188" d="M702.1,455.665l7.164-24.36s-18.628-44.421,2.866-48.719,22.927,41.555,22.927,41.555l-8.6,27.226Z" transform="translate(-607.096 -265.128)" fill="#ffb6b6"/>
      <circle id="Ellipse_82" data-name="Ellipse 82" cx="56.92" cy="56.92" r="56.92" transform="translate(171.104 29.333)" fill="#ffb6b6"/>
      <path id="Path_189" data-name="Path 189" d="M785.673,391.8s-3.348,41.853-11.719,45.2,90.4,26.786,90.4,26.786l-25.112-28.46s-5.022-43.527,6.7-53.571Z" transform="translate(-576.066 -265.365)" fill="#ffb6b6"/>
      <path id="Path_190" data-name="Path 190" d="M746.681,425.366,723.755,422.5s-27.225,14.329-27.225,32.957-15.762,48.72-15.762,48.72S669.3,544.3,695.1,547.165s48.72-42.988,48.72-42.988Z" transform="translate(-617.29 -247.725)" fill="#f0f0f0"/>
      <path id="Path_191" data-name="Path 191" d="M749.469,596.958s-50.152-47.287-64.482-44.421S642,559.7,642,581.2s47.287,71.646,47.287,71.646,35.823,78.811,70.213,81.677a593.452,593.452,0,0,1,67.348,10.031s-15.762,57.317-7.165,73.079,41.555,34.39,44.421,32.957,42.988-38.689,60.183-91.707,28.659-93.14,12.9-96.006S749.469,596.958,749.469,596.958Z" transform="translate(-632.974 -191.482)" fill="#2f2e41"/>
      <path id="Path_192" data-name="Path 192" d="M647.64,569.5s-10.03-1.433-8.6,22.927,5.732,111.768,12.9,128.963,8.6,37.256,5.732,44.421-8.6,18.628,1.433,20.061,51.585-4.3,55.884-5.732,8.6-25.793,5.732-25.793-10.031-1.433-7.165-11.463,4.3-10.031,0-12.9-15.762-7.164-12.9-10.03,5.732-70.214,5.732-70.214Z" transform="translate(-634.315 -184.09)" fill="#2f2e41"/>
      <path id="Path_193" data-name="Path 193" d="M663.355,719.665s-24.36-7.165-27.226,8.6c0,0-4.3,24.36,14.329,32.957a230.173,230.173,0,0,1,34.39,20.061s30.091,11.463,31.524-2.866-5.732-65.915-5.732-65.915Z" transform="translate(-635.701 -122.176)" fill="#2f2e41"/>
      <path id="Path_194" data-name="Path 194" d="M768.152,740.756,814.006,703.5s-8.6,45.854,2.866,54.451l5.236,15.309-14.663,11.995S762.421,778.012,768.152,740.756Z" transform="translate(-578.577 -126.072)" fill="#2f2e41"/>
      <path id="Path_195" data-name="Path 195" d="M820.92,685.595s-30.091,8.6-25.793,38.689,9.81,62.784,9.81,62.784,1.653,80.509,23.147,86.241,27.226-5.732,27.226-5.732,24.432-62.912,17.2-81.677c-8.761-22.713-21.384-48.216-17.2-55.884C859.431,722.47,852.444,681.3,820.92,685.595Z" transform="translate(-566.863 -133.96)" fill="#2f2e41"/>
      <path id="Path_196" data-name="Path 196" d="M880.711,410.914s-11.463,1.433-30.091,4.3-31.524-11.463-41.555-8.6-93.14,22.927-93.14,22.927l12.9,98.872s-15.762,114.634-12.9,134.7-34.39,17.2-12.9,41.555,58.75,45.854,134.7,38.689,85.975-5.732,85.975-17.2-17.2-108.9-11.463-117.5S929.43,590.03,923.7,580s-11.463-15.762-2.866-24.36,12.9-17.2,12.9-21.494,20.061-74.512,20.061-74.512-8.6-34.39-18.628-35.823-18.628-8.6-25.793-8.6-11.464,1.433-15.762,0Z" transform="translate(-609.459 -254.767)" fill="#f0f0f0"/>
      <path id="Path_197" data-name="Path 197" d="M741.513,375.975c6.6-.868,13.412-4.826,17.069-7.25,4.159,4.02,29.77,27.2,73.779,33.928,0,0,.1-.872.35-2.347l15.082,2.574,27.9-2.715c-.14.474-.226.734-.226.734s3.989-1.075,5.373-10.091q.4-2.591.962-5.154c2.244-10.235,7.686-47.123-23.2-71.775-22.485-17.947-48.4-12.284-64.785-5.435a53.526,53.526,0,0,0-29.367,29.935,41.36,41.36,0,0,0-2.66,10.46l-.641,1.822c-4.975.693-14.962-3.483-20.33-1.507-7.337,2.7-10.945,13.774-11.683,17.086S731.843,377.248,741.513,375.975Zm95.009,10.41c3.973-10.224,11.47-21.391,25.2-20.834,14.245.577,16.743,11.889,16.241,21.562L842.529,388.4Z" transform="translate(-595.293 -299.952)" fill="#2f2e41"/>
      <ellipse id="Ellipse_83" data-name="Ellipse 83" cx="2.372" cy="6.269" rx="2.372" ry="6.269" transform="translate(231.792 4.677) rotate(-80.315)" fill="#2f2e41"/>
    </g>
    <g id="Group_60" data-name="Group 60" transform="translate(140 16)">
      <text id="INFLUENCER" transform="translate(526.367 763.807)" fill="#2f2e41" font-size="80" font-family="Arial-Black, Arial" font-weight="800" letter-spacing="0.006em"><tspan x="0" y="0">INFLUENCER</tspan></text>
      <text id="INFLUENCER-2" data-name="INFLUENCER" transform="translate(534.367 755.807)" fill="#fff" font-size="80" font-family="Arial-Black, Arial" font-weight="800" letter-spacing="0.006em"><tspan x="0" y="0">INFLUENCER</tspan></text>
    </g>
  </g>
</svg>
