<svg xmlns="http://www.w3.org/2000/svg" width="500" height="476.559" viewBox="0 0 500 476.559">
  <path id="Subtraction_1" data-name="Subtraction 1" d="M296.486,548.458h0c-3.011,0-5.274-.876-6.725-2.6-3.054-3.633-1.9-10.258-1.278-13.816q.055-.318.1-.606.48-2.869.934-5.539l0-.025c2.922-17.252,4.852-28.649,2.532-36.255-2.278-7.468-8.666-11.558-22.783-14.589a288.346,288.346,0,0,1-83.365-23.907,244.1,244.1,0,0,1-66.236-44.571c-18.849-17.976-33.553-38.29-43.7-60.378A169.729,169.729,0,0,1,60.2,274.843,166.769,166.769,0,0,1,65.29,234a175.236,175.236,0,0,1,14.594-38.069,195.136,195.136,0,0,1,23.083-34.469,221.428,221.428,0,0,1,30.557-30.047,248.826,248.826,0,0,1,37.017-24.8A273.055,273.055,0,0,1,213,87.875a292.165,292.165,0,0,1,46.891-11.844,308.382,308.382,0,0,1,100.611,0A292.168,292.168,0,0,1,407.4,87.875a273.059,273.059,0,0,1,42.461,18.734,248.831,248.831,0,0,1,37.017,24.8,221.421,221.421,0,0,1,30.557,30.047,195.137,195.137,0,0,1,23.083,34.469A175.24,175.24,0,0,1,555.11,234a166.768,166.768,0,0,1,5.09,40.846,160.948,160.948,0,0,1-13.182,64.3,192.067,192.067,0,0,1-16.693,30.585,256.737,256.737,0,0,1-23.619,30.039c-12.227,14.044-28.758,29.718-49.134,46.585-17.419,14.419-37.214,29.373-58.834,44.444-23.029,16.054-42.064,28.013-53.976,35.219-15.117,9.144-27.714,16.036-34.562,18.909C304.609,547.269,300,548.458,296.486,548.458Zm-10.2-327.57a4.853,4.853,0,0,0-4.906,4.9V334.775a4.853,4.853,0,0,0,4.906,4.906h17.473a4.853,4.853,0,0,0,4.906-4.906V270.092l49.969,67.442a5.085,5.085,0,0,0,3.985,1.993H380.1a4.853,4.853,0,0,0,4.9-4.906V225.64a4.842,4.842,0,0,0-4.8-4.758c-.086,0-.174,0-.261.007H362.469a4.853,4.853,0,0,0-4.906,4.9v64.684l-49.969-67.444a4.628,4.628,0,0,0-3.985-2.145Zm120.631-.153a4.91,4.91,0,0,0-4.9,4.9V334.622a4.91,4.91,0,0,0,4.9,4.906h70.049a4.853,4.853,0,0,0,4.906-4.906V317.149a4.853,4.853,0,0,0-4.906-4.906H429.3V293.85h47.671a4.853,4.853,0,0,0,4.906-4.906V271.317a4.853,4.853,0,0,0-4.906-4.9H429.3V248.02h47.671a4.853,4.853,0,0,0,4.906-4.906V225.64a5.13,5.13,0,0,0-4.906-4.9Zm-165.082,0a4.853,4.853,0,0,0-4.906,4.9V334.622a4.853,4.853,0,0,0,4.906,4.906h17.473a4.853,4.853,0,0,0,4.906-4.906V225.64a4.91,4.91,0,0,0-4.906-4.9Zm-94.728,0a4.853,4.853,0,0,0-4.906,4.9V334.622a4.5,4.5,0,0,0,1.38,3.373,5.245,5.245,0,0,0,3.373,1.379h70.049a4.853,4.853,0,0,0,4.9-4.906V317a4.895,4.895,0,0,0-4.751-4.906H169.489V225.64a4.852,4.852,0,0,0-4.9-4.9Z" transform="translate(-60.2 -71.9)" fill="#fff"/>
</svg>
